<?xml version="1.0" encoding="utf-8"?>
<!-- Generator: Adobe Illustrator 17.0.0, SVG Export Plug-In . SVG Version: 6.00 Build 0)  -->
<!DOCTYPE svg PUBLIC "-//W3C//DTD SVG 1.1//EN" "http://www.w3.org/Graphics/SVG/1.1/DTD/svg11.dtd">
<svg version="1.1" id="Ebene_1" xmlns="http://www.w3.org/2000/svg" xmlns:xlink="http://www.w3.org/1999/xlink" x="0px" y="0px"
	 width="300px" height="300px" viewBox="0 0 300 300" enable-background="new 0 0 300 300" xml:space="preserve">
<g>
	<path fill="#FFFFFF" d="M269.879,285.543h-85.169c-6.417,0-11.667-5.25-11.667-11.667V194.54h-41.418v79.336
		c0,6.417-5.25,11.667-11.667,11.667H29.538c-6.417,0-11.667-5.25-11.667-11.667V115.204c0-3.5,1.75-7,4.083-9.334l119.004-97.42
		c4.083-3.5,10.5-3.5,15.167,0l121.337,97.42c2.917,2.333,4.667,5.834,4.667,9.334v158.672
		C281.546,280.293,276.296,285.543,269.879,285.543z M196.376,262.209h61.252V121.038L148.542,33.535L41.205,121.038v141.171h65.919
		v-79.336c0-6.417,5.25-11.667,11.667-11.667h65.335c6.417,0,11.667,5.25,11.667,11.667v79.336H196.376z"/>
</g>
</svg>
