<?xml version="1.0" encoding="utf-8"?>
<!-- Generator: Adobe Illustrator 17.0.0, SVG Export Plug-In . SVG Version: 6.00 Build 0)  -->
<!DOCTYPE svg PUBLIC "-//W3C//DTD SVG 1.1//EN" "http://www.w3.org/Graphics/SVG/1.1/DTD/svg11.dtd">
<svg version="1.1" id="Ebene_1" xmlns="http://www.w3.org/2000/svg" xmlns:xlink="http://www.w3.org/1999/xlink" x="0px" y="0px"
	 width="300px" height="300px" viewBox="0 0 300 300" enable-background="new 0 0 300 300" xml:space="preserve">
<path fill="#FFFFFF" d="M275.282,55.703L228.41,13.349c-2.259-1.694-5.083-2.824-7.906-2.824H76.5
	c-6.212,0-11.859,5.083-11.859,11.859v32.189H30.193c-6.212,0-11.859,5.083-11.859,11.859v208.383
	c0,6.212,5.083,11.859,11.859,11.859h45.178c0.565,0,0.565,0,1.129,0h191.441c6.212,0,11.859-5.083,11.859-11.859V64.174
	C279.235,60.786,278.106,57.962,275.282,55.703z M248.74,63.045h-25.413l-0.565-23.154L248.74,63.045z M42.052,77.728h22.589
	v185.229H42.052V77.728z M88.359,262.957V33.679h111.25l0.565,41.225c0,6.212,5.083,11.294,11.859,11.294h44.048v176.758H88.359z"/>
</svg>
