<?xml version="1.0" encoding="utf-8"?>
<!-- Generator: Adobe Illustrator 17.0.0, SVG Export Plug-In . SVG Version: 6.00 Build 0)  -->
<!DOCTYPE svg PUBLIC "-//W3C//DTD SVG 1.1//EN" "http://www.w3.org/Graphics/SVG/1.1/DTD/svg11.dtd">
<svg version="1.1" id="Ebene_1" xmlns="http://www.w3.org/2000/svg" xmlns:xlink="http://www.w3.org/1999/xlink" x="0px" y="0px"
	 width="300px" height="300px" viewBox="0 0 300 300" enable-background="new 0 0 300 300" xml:space="preserve">
<g>
	<path fill="#FFFFFF" d="M213.824,22.728c-44.225,0-80.983,36.184-80.983,80.983c0,18.953,6.892,36.184,17.805,49.968l-26.994,26.42
		c-9.19-7.467-20.677-11.487-33.312-11.487c-30.44,0-54.563,24.697-54.563,54.563s24.697,54.563,54.563,54.563
		s54.563-24.697,54.563-54.563c0-8.615-2.297-17.23-5.743-24.697l29.292-28.717c13.21,8.615,28.717,13.784,45.373,13.784
		c44.799,0,80.983-36.184,80.983-80.983S258.623,22.728,213.824,22.728z M90.339,253.616c-16.656,0-30.44-13.784-30.44-30.44
		s13.784-30.44,30.44-30.44s30.44,13.784,30.44,30.44C121.354,239.831,107.57,253.616,90.339,253.616z M213.824,159.997
		c-31.015,0-56.86-25.271-56.86-56.86s25.271-56.86,56.86-56.86s56.86,25.271,56.86,56.86S244.839,159.997,213.824,159.997z"/>
	<path fill="#FFFFFF" d="M101.252,103.711c0-25.846-21.251-47.096-47.096-47.096S7.059,77.865,7.059,103.711
		s21.251,46.522,47.096,46.522S101.252,129.557,101.252,103.711z M31.756,103.711c0-12.636,10.338-22.974,22.974-22.974
		s22.974,10.338,22.974,22.974s-10.338,22.974-22.974,22.974S31.756,116.347,31.756,103.711z"/>
</g>
</svg>
