<?xml version="1.0" encoding="utf-8"?>
<!-- Generator: Adobe Illustrator 17.0.0, SVG Export Plug-In . SVG Version: 6.00 Build 0)  -->
<!DOCTYPE svg PUBLIC "-//W3C//DTD SVG 1.1//EN" "http://www.w3.org/Graphics/SVG/1.1/DTD/svg11.dtd">
<svg version="1.1" id="Ebene_1" xmlns="http://www.w3.org/2000/svg" xmlns:xlink="http://www.w3.org/1999/xlink" x="0px" y="0px"
	 width="300px" height="300px" viewBox="0 0 300 300" enable-background="new 0 0 300 300" xml:space="preserve">
<g>
	<path fill="#FFFFFF" d="M285.17,122.519c-2.196-6.04-8.236-16.472-24.159-18.669c-1.647,0-2.745-0.549-4.393-0.549
		c1.098-1.098,1.647-2.196,2.745-3.294c8.236-10.982,7.687-24.708-0.549-35.69c-7.687-9.334-15.923-17.021-23.61-24.708
		l-2.196-1.647c-7.138-6.589-14.276-8.236-19.218-8.236c-6.04,0-12.08,2.196-17.021,6.04l-3.294,2.745
		c0-1.647-0.549-2.745-0.549-4.393c-1.647-10.432-7.687-18.669-17.021-23.061l-4.393-2.196h-5.491h-36.788h-4.942l-4.393,2.196
		c-5.491,2.196-14.276,8.785-16.472,23.061l-0.549,4.393l-1.647-1.098c-1.098-1.098-2.196-1.647-3.294-2.196
		c-4.942-3.294-10.432-4.942-15.374-4.942c-5.491,0-10.432,1.647-15.374,4.942c-7.687,4.942-13.178,10.982-19.218,17.021
		c-3.844,3.844-7.687,8.236-10.982,12.08c-9.334,11.531-9.883,24.708-0.549,36.788l1.647,2.196c-1.098,0-2.196,0-2.745,0.549
		c-14.825,1.647-21.414,11.531-24.159,17.021l-2.196,4.393v4.942v36.788v3.844l1.647,3.844c2.196,6.04,8.785,16.472,24.708,18.669
		c1.098,0,2.745,0.549,3.844,0.549c-0.549,0.549-0.549,1.098-1.098,1.647l-1.647,2.196c-8.236,10.982-8.236,24.708,0.549,35.69
		c7.138,9.334,15.374,16.472,23.061,23.61l2.196,2.196c6.04,5.491,12.629,8.236,19.218,8.236c6.04,0,11.531-2.196,17.021-6.04
		c1.098-0.549,2.196-1.647,3.294-2.745c0,1.098,0.549,2.196,0.549,3.844c2.196,15.374,12.08,21.414,18.12,24.159l3.844,1.647h4.393
		h36.788h6.04l4.393-2.196c5.491-2.196,14.825-8.785,17.021-23.061l0.549-3.844c0.549,0,0.549,0.549,1.098,0.549
		c4.393,3.294,10.982,7.687,19.218,7.687c9.334,0,15.374-4.393,19.767-7.687c9.334-7.687,18.12-16.472,25.807-26.356
		c9.334-11.531,9.334-24.708,0-36.239l-1.647-2.196c1.098,0,1.647,0,2.745-0.549c14.825-1.647,21.414-11.531,24.159-17.021
		l2.196-4.393v-6.04v-36.788v-3.844L285.17,122.519z M264.854,166.994c-1.647,2.745-3.844,3.844-7.138,4.393
		c-7.687,1.098-15.923,2.196-23.61,3.294c-1.098,0-1.647,0.549-2.196,1.647c-1.647,3.844-2.745,7.138-4.393,10.982
		c-0.549,1.098-0.549,2.196,0,3.294c4.942,6.04,9.883,12.629,14.276,18.669c2.745,3.844,2.745,5.491,0,9.334
		c-7.138,8.785-14.825,16.472-23.061,23.61c-2.196,1.647-3.844,2.745-5.491,2.745s-3.294-1.098-6.04-2.745
		c-6.04-4.942-12.08-9.334-18.12-14.276c0-0.549-0.549-0.549-1.098-0.549s-0.549,0-0.549,0c-3.844,1.647-7.138,3.294-10.982,4.393
		c-1.098,0.549-1.647,1.098-2.196,2.745c-1.098,8.236-2.196,16.472-3.844,24.159c-0.549,2.745-1.647,4.942-4.393,6.589
		c-12.08,0-24.708,0-36.788,0c-2.745-1.098-3.844-3.294-4.393-6.589c-1.098-8.236-2.745-16.472-3.844-24.709
		c0-1.098-0.549-1.647-1.647-2.196c-3.844-1.647-7.687-3.294-10.982-4.393h-0.549c-0.549,0-1.098,0-1.098,0.549
		c-6.589,4.942-13.178,9.883-20.316,14.825c-1.647,1.098-2.745,1.647-4.393,1.647c-1.647,0-2.745-0.549-4.393-2.196
		c-8.236-7.687-16.472-15.374-23.61-23.61c-2.196-2.745-2.745-5.491,0-8.785c4.942-6.04,9.334-12.629,14.276-18.669
		c1.098-1.098,1.098-2.196,0.549-3.294c-1.647-3.844-3.294-7.687-4.942-11.531c-0.549-1.098-1.098-1.647-2.196-2.196
		c-7.687-1.098-15.923-2.196-23.61-3.294c-3.294-0.549-5.491-1.647-6.589-4.393c0-12.08,0-24.159,0-36.788
		c1.647-2.745,3.844-3.844,7.138-4.393c7.687-1.098,15.374-2.196,23.61-3.294c1.647,0,2.196-0.549,2.745-2.196
		c1.098-3.844,2.745-7.138,4.393-10.982c0.549-1.098,0.549-1.647-0.549-2.745c-4.942-6.04-9.883-12.629-14.825-18.669
		c-2.745-3.844-2.745-5.491,0-8.785c3.294-3.844,6.589-7.687,10.432-11.531c4.942-4.942,9.883-9.883,15.374-13.727
		c1.098-0.549,2.196-1.098,3.294-1.098s1.647,0.549,2.745,1.098c1.098,0.549,1.647,1.098,2.196,1.647
		c6.04,4.942,12.629,9.334,18.669,14.276c0.549,0,0.549,0.549,1.098,0.549s0.549,0,1.098,0c3.844-1.647,7.138-3.294,10.982-4.393
		c1.098-0.549,1.647-1.098,1.647-2.196c1.098-8.236,2.745-16.472,3.844-24.708c0.549-2.745,1.647-4.942,3.844-6.04
		c12.08,0,24.709,0,36.788,0c2.745,1.098,3.844,2.745,4.393,6.04c1.098,8.236,2.745,17.021,3.844,25.258
		c0,1.098,0.549,1.647,1.647,1.647c3.844,1.647,7.687,3.294,11.531,4.393h0.549c0.549,0,1.098,0,1.098-0.549
		c6.589-4.942,13.727-9.883,20.316-15.374c1.647-1.098,2.745-1.647,4.393-1.647c1.647,0,2.745,0.549,4.393,2.196
		c8.236,7.687,16.472,15.374,23.61,24.159c2.196,2.745,2.745,5.491,0.549,8.236c-4.942,6.589-9.883,12.629-14.825,18.669
		c-1.098,1.098-1.098,2.196-0.549,3.294c1.647,3.844,3.294,7.687,4.942,11.531c0.549,1.098,1.098,1.647,2.196,2.196
		c7.687,1.098,15.923,2.745,23.61,3.844c3.294,0.549,5.491,1.647,6.589,4.393C264.854,142.835,264.854,154.915,264.854,166.994z"/>
	<path fill="#FFFFFF" d="M148.999,96.712L148.999,96.712L148.999,96.712c-13.727,0-27.454,6.04-37.337,15.923
		s-15.374,23.61-15.374,37.337c0.549,29.101,23.61,52.162,52.711,52.162s52.711-23.61,52.711-52.711
		c0.549-13.178-4.942-26.356-14.825-36.788C177.002,102.752,162.726,96.712,148.999,96.712z M148.999,180.172L148.999,180.172
		c-17.021,0-30.748-13.727-30.748-30.748c0-16.472,14.276-30.748,30.748-30.748l0,0c16.472,0,31.297,14.276,30.748,30.748
		C179.747,166.994,166.02,180.172,148.999,180.172z"/>
</g>
</svg>
