<?xml version="1.0" encoding="utf-8"?>
<!-- Generator: Adobe Illustrator 17.0.0, SVG Export Plug-In . SVG Version: 6.00 Build 0)  -->
<!DOCTYPE svg PUBLIC "-//W3C//DTD SVG 1.1//EN" "http://www.w3.org/Graphics/SVG/1.1/DTD/svg11.dtd">
<svg version="1.1" id="Ebene_1" xmlns="http://www.w3.org/2000/svg" xmlns:xlink="http://www.w3.org/1999/xlink" x="0px" y="0px"
	 width="300px" height="300px" viewBox="0 0 300 300" enable-background="new 0 0 300 300" xml:space="preserve">
<g>
	<path fill="#FFFFFF" d="M88.041,139.686H61.756c-6.815,0-12.169,5.354-12.169,12.169v15.09c0,6.815,5.354,12.169,12.169,12.169
		h26.285c6.815,0,12.169-5.354,12.169-12.169v-15.09C100.21,145.04,94.856,139.686,88.041,139.686z"/>
	<path fill="#FFFFFF" d="M246.24,35.518H100.21c-26.285,0-47.703,20.444-49.163,46.243c-25.312,2.434-44.782,23.365-44.782,49.163
		v77.396c-0.487,26.772,21.904,49.163,49.163,49.163h146.029c26.285,0,47.703-20.444,49.163-46.243
		c25.312-2.434,44.782-23.365,44.782-49.163V84.682C295.403,57.423,273.498,35.518,246.24,35.518z M231.15,207.833
		c0,16.55-13.629,30.179-30.179,30.179H54.941c-16.55,0-30.179-13.629-30.179-30.179v-77.396c0-16.55,13.629-30.179,30.179-30.179
		h146.029c16.55,0,30.179,13.629,30.179,30.179V207.833z M275.932,162.077c0,15.09-11.196,27.259-25.312,29.693v-61.332
		c0-27.259-22.391-49.65-49.65-49.65H70.518c1.947-14.603,14.603-26.285,29.693-26.285H246.24c16.55,0,30.179,13.629,30.179,30.179
		v77.396H275.932z"/>
</g>
</svg>
